<svg width="606" height="606" viewBox="0 0 606 606" fill="none" xmlns="http://www.w3.org/2000/svg">
<circle cx="303" cy="303" r="303" fill="black"/>
<path d="M416.642 313.495C413.933 316.163 409.914 317.823 406.103 317.823H405.746C403.037 317.852 400.358 317.823 397.648 317.823H317.385V406.166C317.385 410.168 315.688 413.755 313.038 416.66C310.329 419.566 306.34 420.811 302.5 420.989C298.778 421.166 294.551 419.24 291.961 416.66C289.282 413.963 287.614 409.961 287.614 406.166V405.81C287.585 403.113 287.614 400.445 287.614 397.747V317.822H198.897C194.848 317.822 191.275 316.162 188.358 313.494C185.44 310.796 184.19 306.824 184.011 303C183.833 299.294 185.768 295.084 188.358 292.505C191.067 289.837 195.086 288.177 198.897 288.177H199.254C201.963 288.148 204.642 288.177 207.352 288.177H287.615V199.834C287.615 195.802 289.282 192.245 291.962 189.34C294.671 186.434 298.66 185.189 302.5 185.011C306.222 184.834 310.449 186.76 313.039 189.34C315.718 192.037 317.386 196.039 317.386 199.834V200.19C317.415 202.887 317.386 205.555 317.386 208.253V288.178H406.103C410.122 288.178 413.725 289.868 416.642 292.506C419.56 295.204 420.81 299.176 420.989 303C421.167 306.706 419.232 310.916 416.642 313.495Z" fill="white"/>
</svg>
