<svg width="385" height="384" viewBox="0 0 385 384" fill="none" xmlns="http://www.w3.org/2000/svg">
<path d="M383.999 221.2C383.299 224.1 382.599 227 381.799 229.8C375.099 253.6 353.299 270.5 328.599 270.6C317.899 270.7 306.999 271 296.399 269.8C270.799 266.8 249.699 242.9 249.099 217.1C249.099 215.3 249.499 213.4 250.199 211.7C266.099 172.6 282.099 133.6 297.999 94.6C298.499 93.5 298.799 92.3 299.399 90.9C273.899 90.9 248.899 90.9 223.699 90.9C219.899 100.6 213.099 107.4 203.399 111.2C203.399 164.8 203.399 218.3 203.399 271.7C228.899 280.8 246.199 298.3 246.599 315.6C210.199 315.6 173.899 315.6 137.599 315.6C137.399 298.8 155.699 280.1 180.799 271.7C180.799 270.5 180.799 269.1 180.799 267.7C180.799 216.8 180.799 166 180.899 115.1C180.899 112.2 180.199 110.8 177.399 109.5C170.099 106.2 164.799 100.6 161.499 93.3C160.799 91.8 160.299 90.6 158.099 90.6C134.099 90.7 110.099 90.7 86.0992 90.7C85.5992 90.7 85.1992 90.8 84.3992 91C86.4992 96.1 88.3992 100.9 90.3992 105.7C104.399 139.8 118.199 173.9 132.499 207.8C134.899 213.6 135.299 219 134.199 224.9C129.099 251.4 106.199 270.5 79.1992 270.7C69.0992 270.8 58.8992 271.2 48.8992 270C23.9992 267 4.8992 247.9 0.8992 223.3C0.7992 222.6 0.399219 221.9 0.199219 221.2C0.199219 218.7 0.199219 216.2 0.199219 213.7C0.499219 213.2 0.899213 212.7 1.09921 212.1C17.2992 172.5 33.4992 132.9 49.6992 93.3C49.9992 92.6 50.0992 91.7 50.3992 90.5C40.9992 90.5 31.8992 90.5 22.8992 90.5C22.8992 82.9 22.8992 75.6 22.8992 68.2C24.6992 68.2 26.1992 68.2 27.6992 68.2C70.7992 68.2 113.899 68.2 157.099 68.3C159.499 68.3 160.699 67.7 161.799 65.3C165.099 57.8 170.699 52.3 178.199 49C180.499 48 180.999 46.8 180.999 44.6C180.899 29.7 180.999 14.9 180.999 0C188.499 0 195.999 0 203.499 0C203.499 14.9 203.499 29.7 203.399 44.6C203.399 46.9 203.999 48.1 206.199 49C213.599 52.2 219.099 57.6 222.399 64.9C223.599 67.5 224.899 68.2 227.699 68.2C270.799 68.1 313.899 68.1 356.999 68.1C358.499 68.1 359.899 68.1 361.499 68.1C361.499 75.8 361.499 83.1 361.499 90.8C352.099 90.8 342.999 90.8 333.599 90.8C334.099 92.3 334.499 93.4 334.899 94.4C346.199 122 357.599 149.6 368.899 177.1C373.899 189.3 379.099 201.5 384.199 213.6C383.999 216.2 383.999 218.8 383.999 221.2ZM106.799 203.1C93.6992 171.6 80.7992 140.7 67.4992 108.8C54.1992 140.8 41.1992 171.8 28.1992 203.1C54.5992 203.1 80.3992 203.1 106.799 203.1ZM355.799 203.1C342.699 171.7 329.799 140.7 316.499 108.8C303.099 140.9 290.199 171.9 277.199 203.1C303.599 203.1 329.399 203.1 355.799 203.1Z" fill="black"/>
<path d="M90.8008 384C91.0008 378 90.6008 371.9 91.5008 366.1C94.0008 350.3 107.601 338.4 123.601 338.4C169.201 338.2 214.801 338.2 260.401 338.4C278.401 338.5 292.801 353.3 293.201 371.3C293.301 375.5 293.201 379.8 293.201 384C225.801 384 158.201 384 90.8008 384Z" fill="black"/>
</svg>
