<svg width="703" height="729" viewBox="0 0 703 729" fill="none" xmlns="http://www.w3.org/2000/svg">
<path d="M0.847656 235.066V662.413C0.847656 698.814 30.3637 728.33 66.765 728.33H636.565C672.966 728.33 702.482 698.814 702.482 662.413V235.066H0.847656ZM181.794 653.666H147.144C127.425 653.666 111.56 637.682 111.56 618.082C111.56 598.482 127.544 582.498 147.144 582.498H181.794C201.513 582.498 217.378 598.482 217.378 618.082C217.378 637.682 201.394 653.666 181.794 653.666ZM181.794 517.28H147.144C127.425 517.28 111.56 501.296 111.56 481.696C111.56 462.097 127.544 446.112 147.144 446.112H181.794C201.513 446.112 217.378 462.096 217.378 481.696C217.378 501.294 201.394 517.28 181.794 517.28ZM181.794 380.893H147.144C127.425 380.893 111.56 364.909 111.56 345.309C111.56 325.709 127.544 309.725 147.144 309.725H181.794C201.513 309.725 217.378 325.709 217.378 345.309C217.378 364.909 201.394 380.893 181.794 380.893ZM369.048 653.546H334.517C314.798 653.546 298.933 637.562 298.933 617.962C298.933 598.364 314.917 582.378 334.517 582.378H369.048C388.766 582.378 404.632 598.362 404.632 617.962C404.632 637.561 388.648 653.546 369.048 653.546ZM369.048 517.16H334.517C314.798 517.16 298.933 501.176 298.933 481.576C298.933 461.977 314.917 445.992 334.517 445.992H369.048C388.766 445.992 404.632 461.976 404.632 481.576C404.632 501.174 388.648 517.16 369.048 517.16ZM369.048 380.773H334.517C314.798 380.773 298.933 364.789 298.933 345.189C298.933 325.589 314.917 309.605 334.517 309.605H369.048C388.766 309.605 404.632 325.589 404.632 345.189C404.632 364.789 388.648 380.773 369.048 380.773ZM556.301 653.426H521.65C501.932 653.426 486.066 637.442 486.066 617.842C486.066 598.244 502.05 582.258 521.65 582.258H556.301C576.02 582.258 591.885 598.242 591.885 617.842C591.885 637.441 575.901 653.426 556.301 653.426ZM556.301 517.04H521.65C501.932 517.04 486.066 501.056 486.066 481.456C486.066 461.856 502.05 445.872 521.65 445.872H556.301C576.02 445.872 591.885 461.856 591.885 481.456C591.885 501.056 575.901 517.04 556.301 517.04ZM556.301 380.653H521.65C501.932 380.653 486.066 364.669 486.066 345.069C486.066 325.47 502.05 309.485 521.65 309.485H556.301C576.02 309.485 591.885 325.469 591.885 345.069C591.885 364.668 575.901 380.653 556.301 380.653Z" fill="black"/>
<path d="M166.277 35.917V70.5677C166.277 90.2863 150.293 106.152 130.693 106.152C111.095 106.152 95.1094 90.1677 95.1094 70.5677V35.917C95.1094 16.1983 111.093 0.333008 130.693 0.333008C150.292 0.333008 166.277 16.317 166.277 35.917Z" fill="black"/>
<path d="M608.332 35.917V70.5677C608.332 90.2863 592.348 106.152 572.748 106.152C553.148 106.152 537.164 90.1677 537.164 70.5677V35.917C537.164 16.1983 553.148 0.333008 572.748 0.333008C592.348 0.333008 608.332 16.317 608.332 35.917Z" fill="black"/>
<path d="M702.48 124.586V191.321H0.839844V124.586C0.839844 88.185 30.3558 58.6689 66.7572 58.6689V67.6533C66.7572 101.017 91.2572 130.768 124.507 133.919C162.657 137.419 194.507 107.555 194.507 70.3347V58.7825H508.813V70.3347C508.813 107.553 540.662 137.417 578.813 133.919C612.064 130.887 636.562 101.137 636.562 67.6533V58.6689C672.964 58.6689 702.48 88.185 702.48 124.586Z" fill="black"/>
</svg>
