<svg width="343" height="490" viewBox="0 0 343 490" fill="none" xmlns="http://www.w3.org/2000/svg">
<path d="M240.317 349.439C235.087 356.158 227.624 361.387 218.666 362.877C215.682 363.622 212.692 364.372 208.958 364.372C199.249 364.372 189.546 360.637 182.078 353.919C176.104 348.689 167.146 348.689 161.171 353.919C151.463 362.877 137.275 366.611 124.583 363.627C115.625 361.387 108.156 356.908 102.932 350.189L84.2656 489.816L171.626 418.133L258.986 488.321L240.317 349.439Z" fill="black"/>
<path d="M332.903 232.959C335.143 228.48 334.398 223.251 331.408 218.771L330.663 218.027C318.716 200.855 321.705 177.709 337.382 164.267C341.117 160.532 343.356 156.053 342.612 150.829C341.867 145.6 338.877 141.121 334.398 138.881L333.653 138.137C314.986 128.428 306.773 106.777 314.986 88.11C317.226 82.8808 316.481 77.6569 313.492 73.922C310.507 69.4428 306.023 67.2032 300.799 67.2032H299.304H298.559C278.398 67.2032 261.226 52.2712 258.986 31.3645V30.6197C258.241 25.3905 255.252 20.9115 250.772 18.6719C246.293 16.4323 241.064 16.4323 236.584 18.6719L236.579 20.1562C218.658 29.8645 196.262 24.6354 185.058 7.46358L184.313 6.7188C181.329 2.2396 176.844 0 171.62 0C166.391 0 161.912 2.2396 158.928 6.7188L158.183 7.46358C146.985 24.6356 124.584 29.8649 106.662 20.1562L105.917 19.4115C101.438 17.1719 96.2086 17.1719 91.7289 19.4115C87.2497 21.6511 84.2601 26.1303 83.5153 31.3593V32.1041C81.2757 52.2654 64.8486 67.9428 43.9419 67.9428H43.1972H41.7024C36.4732 67.9428 31.9941 70.1824 29.0097 74.6616C26.0253 79.1408 25.2753 84.3699 27.5149 88.8496C35.7285 108.262 27.5149 129.918 8.84823 139.62V139.625C4.36903 141.865 1.37943 146.344 0.634629 151.573C-0.110157 156.803 2.12942 161.282 5.86382 165.011C21.5465 178.448 24.5305 201.599 12.5826 218.771L11.8378 219.515C8.85344 223.995 8.10344 229.224 10.343 233.703C12.5826 238.183 16.317 241.917 21.5409 242.662C41.7022 247.141 55.1396 266.558 52.9009 286.714V287.459C52.1561 292.688 53.6457 297.167 58.1301 300.896C61.8645 304.63 67.0885 305.375 71.5675 303.88C75.3018 303.136 79.0362 302.386 82.0205 302.386C98.4472 302.386 114.125 312.839 119.354 329.266C120.849 334.495 125.328 338.224 129.807 338.974C135.036 340.469 140.26 338.974 143.995 335.239C159.678 321.051 183.568 321.051 198.5 335.239C202.235 338.974 207.459 340.469 212.688 338.974C217.917 337.479 221.647 334.495 223.141 329.266C229.86 309.104 251.516 297.906 271.672 303.88C276.901 305.375 281.38 303.88 285.109 300.896C288.844 297.161 291.083 292.682 290.339 287.458V286.714C287.354 265.807 300.792 246.396 321.699 242.662C326.928 241.172 330.662 238.183 332.902 232.959L332.903 232.959Z" fill="black"/>
</svg>
