<svg width="441" height="642" viewBox="0 0 441 642" fill="none" xmlns="http://www.w3.org/2000/svg">
<path d="M321.931 78.2813H118.931V49.8173C118.931 43.3695 124.155 38.1507 130.597 38.1507H144.128C151.441 37.9475 157.899 33.3329 160.461 26.484C160.461 25.4319 172.128 0 220.431 0C268.733 0 279.931 25.3173 280.28 26.136V26.1308C282.686 33.1516 289.311 37.8496 296.733 37.7975H310.264C313.358 37.7975 316.327 39.0266 318.514 41.2141C320.702 43.4068 321.931 46.3704 321.931 49.4641V78.2813ZM440.816 99.516V618.449C440.816 624.637 438.358 630.574 433.978 634.949C429.603 639.324 423.67 641.783 417.483 641.783H23.3762C17.1887 641.783 11.2564 639.324 6.88151 634.949C2.50124 630.574 0.0429688 624.637 0.0429688 618.449V99.516C0.0429688 93.3285 2.50138 87.3909 6.88151 83.016C11.2564 78.6411 17.1888 76.1827 23.3762 76.1827H83.9282V96.2507C83.9282 105.912 91.7615 113.751 101.428 113.751H339.428C349.095 113.751 356.928 105.912 356.928 96.2507V76.1827H417.48C423.668 76.1827 429.6 78.6411 433.975 83.016C438.355 87.3909 440.813 93.3285 440.813 99.516H440.816ZM112.749 471.449C112.765 469.121 112.291 466.814 111.348 464.684C110.937 463.626 110.432 462.611 109.833 461.653C109.156 460.741 108.416 459.887 107.614 459.085C100.661 452.564 89.8379 452.564 82.8793 459.085C82.0147 459.725 81.197 460.429 80.4314 461.184C79.848 462.236 79.2647 463.168 78.7959 464.215C78.3272 465.267 78.098 466.434 77.8636 467.481V467.486C76.697 473.241 78.4938 479.199 82.65 483.35C85.926 486.631 90.374 488.48 95.0145 488.485C104.681 488.485 112.515 480.647 112.515 470.985L112.749 471.449ZM112.749 358.752C112.718 354.117 110.874 349.679 107.614 346.382C100.661 339.867 89.8379 339.867 82.8793 346.382C76.0563 353.216 76.0563 364.284 82.8793 371.117C86.1605 374.403 90.6085 376.247 95.249 376.252C104.91 376.252 112.749 368.413 112.749 358.752ZM112.749 246.049C112.718 241.419 110.874 236.977 107.614 233.685C100.661 227.164 89.8379 227.164 82.8793 233.685C79.6189 236.977 77.7751 241.419 77.749 246.049C77.6292 247.174 77.6292 248.31 77.749 249.435C77.9886 250.544 78.3011 251.633 78.6813 252.701C79.1552 253.747 79.7021 254.763 80.3167 255.737C80.9574 256.706 81.7022 257.601 82.5303 258.419C85.8115 261.7 90.2595 263.549 94.9001 263.549C99.5303 263.523 103.973 261.68 107.265 258.419C108.093 257.602 108.838 256.706 109.483 255.737C110.103 254.784 110.614 253.768 110.999 252.701C111.468 251.654 111.822 250.56 112.046 249.435C112.405 248.336 112.64 247.201 112.749 246.049ZM363.109 471.455C363.109 461.793 355.276 453.955 345.609 453.955H157.769C148.108 453.955 140.269 461.793 140.269 471.455C140.269 481.121 148.108 488.955 157.769 488.955H345.609C355.276 488.955 363.109 481.121 363.109 471.455ZM363.109 358.757C363.109 349.091 355.276 341.257 345.609 341.257H157.769C148.108 341.257 140.269 349.091 140.269 358.757C140.269 368.419 148.108 376.257 157.769 376.257H345.609C355.276 376.257 363.109 368.419 363.109 358.757ZM363.109 246.055C363.109 236.393 355.276 228.555 345.609 228.555H157.769C148.108 228.555 140.269 236.393 140.269 246.055C140.269 255.721 148.108 263.555 157.769 263.555H345.609C355.276 263.555 363.109 255.721 363.109 246.055Z" fill="black"/>
</svg>
