<svg width="419" height="359" viewBox="0 0 419 359" fill="none" xmlns="http://www.w3.org/2000/svg">
<path d="M134.96 0L112.559 59.7347H60.2933C27.1999 59.7347 0.558594 86.3747 0.558594 119.469V298.669C0.558594 331.763 27.1986 358.404 60.2933 358.404H358.96C392.053 358.404 418.695 331.764 418.695 298.669V119.469C418.695 86.376 392.055 59.7347 358.96 59.7347H306.695L284.293 0H134.96ZM209.627 112C263.059 112 306.695 155.636 306.695 209.068C306.695 262.5 263.059 306.136 209.627 306.136C156.195 306.136 112.559 262.5 112.559 209.068C112.559 155.636 156.195 112 209.627 112ZM209.627 141.864C172.335 141.864 142.429 171.776 142.429 209.061C142.429 246.353 172.341 276.259 209.627 276.259C246.919 276.259 276.824 246.347 276.824 209.061C276.824 171.769 246.912 141.864 209.627 141.864Z" fill="black"/>
</svg>
