<svg width="710" height="710" viewBox="0 0 710 710" fill="none" xmlns="http://www.w3.org/2000/svg">
<path d="M543.571 633.736H76.1573V166.322H345.704L421.865 90.1611H38.0787C17.172 90.1611 0 107.333 0 128.24V671.813C0 693.464 17.172 709.892 38.0787 709.892H581.652C602.559 709.892 619.731 692.72 619.731 671.813L619.736 288.026L543.575 364.933L543.571 633.736Z" fill="black"/>
<path d="M259.996 338.669L500.223 98.4424L611.624 209.844L371.397 450.07L259.996 338.669Z" fill="black"/>
<path d="M702.609 84.9372L624.953 7.2812C615.245 -2.42707 600.313 -2.42707 590.604 7.2812L543.562 54.3225L654.817 165.577L701.858 118.536C711.567 109.577 711.567 94.6399 702.609 84.9372Z" fill="black"/>
<path d="M183.679 414.963C179.944 418.697 177.705 423.921 176.96 429.151L166.507 517.255C164.267 532.937 177.705 545.629 193.387 544.135L281.491 533.682C286.72 532.937 291.944 530.697 295.679 526.963L329.277 493.364L216.528 381.364L183.679 414.963Z" fill="black"/>
</svg>
