<svg width="653" height="648" viewBox="0 0 653 648" fill="none" xmlns="http://www.w3.org/2000/svg">
<path d="M652.413 594.066V602.342C652.397 614.379 647.605 625.921 639.095 634.436C630.579 642.946 619.038 647.738 607.002 647.754H46.2548C34.2132 647.738 22.6761 642.946 14.1615 634.436C5.65108 625.92 0.85935 614.378 0.84375 602.342V594.066C11.2448 608.842 28.1877 617.629 46.2557 617.618H607.002C625.07 617.629 642.013 608.842 652.414 594.066H652.413Z" fill="black"/>
<path d="M141.229 23.584V89.0893V89.0841C141.229 97.2092 136.891 104.72 129.86 108.781C122.823 112.839 114.152 112.839 107.12 108.781C100.083 104.719 95.75 97.2085 95.75 89.0841V23.5788V23.584C95.75 15.4589 100.083 7.95332 107.12 3.89065C114.151 -0.171883 122.822 -0.171883 129.86 3.89065C136.891 7.95318 141.229 15.4584 141.229 23.584Z" fill="black"/>
<path d="M349.333 23.5842V89.0896V89.0843C349.333 97.1989 345.005 104.694 337.979 108.751C330.953 112.808 322.301 112.808 315.276 108.751C308.25 104.694 303.922 97.1989 303.922 89.0843V23.579V23.5842C303.922 15.4697 308.25 7.97488 315.276 3.92288C322.302 -0.134451 330.953 -0.134451 337.979 3.92288C345.005 7.97502 349.333 15.4698 349.333 23.5842Z" fill="black"/>
<path d="M245.282 23.5842V89.0896V89.0843C245.282 97.1989 240.954 104.694 233.928 108.751C226.902 112.808 218.245 112.808 211.225 108.751C204.199 104.694 199.871 97.1989 199.871 89.0843V23.579V23.5842C199.871 15.4697 204.199 7.97488 211.225 3.92288C218.246 -0.134451 226.903 -0.134451 233.928 3.92288C240.954 7.97502 245.282 15.4698 245.282 23.5842Z" fill="black"/>
<path d="M453.403 23.5842V89.0896V89.0843C453.403 97.1989 449.075 104.694 442.049 108.751C435.028 112.808 426.372 112.808 419.346 108.751C412.32 104.694 407.992 97.1989 407.992 89.0843V23.579V23.5842C407.992 15.4697 412.32 7.97488 419.346 3.92288C426.372 -0.134451 435.029 -0.134451 442.049 3.92288C449.075 7.97502 453.403 15.4698 453.403 23.5842Z" fill="black"/>
<path d="M652.48 94.2799V174.785H0.839844V94.2799C0.855469 82.2435 5.64718 70.7013 14.1576 62.1919C22.6732 53.6815 34.2096 48.8898 46.2509 48.8742H85.5536V86.6809C85.5536 98.4413 91.8296 109.312 102.012 115.192C112.2 121.072 124.747 121.072 134.934 115.192C145.12 109.311 151.392 98.4422 151.392 86.6809V48.8742H189.674V86.6809H189.679C189.679 98.4309 195.944 109.285 206.121 115.16C216.299 121.034 228.835 121.034 239.007 115.16C249.184 109.285 255.455 98.4302 255.455 86.6809V48.8742H293.736V86.6809C293.736 98.4309 300.007 109.285 310.179 115.16C320.356 121.034 332.892 121.034 343.069 115.16C353.241 109.285 359.512 98.4302 359.512 86.6809V48.8742H397.793V86.6809C397.793 98.4309 404.064 109.285 414.236 115.16C424.413 121.034 436.949 121.034 447.127 115.16C457.304 109.285 463.569 98.4302 463.569 86.6809V48.8742H501.851V86.6809C501.851 98.4413 508.127 109.312 518.315 115.192C528.502 121.072 541.049 121.072 551.236 115.192C561.418 109.311 567.695 98.4422 567.695 86.6809V48.8742H607.064C616.007 48.8482 624.757 51.4783 632.2 56.4367C639.643 61.3898 645.45 68.442 648.877 76.7021C651.273 82.2542 652.497 88.2385 652.476 94.2808L652.48 94.2799Z" fill="black"/>
<path d="M557.522 23.584V89.0893V89.0841C557.522 97.2092 553.189 104.72 546.153 108.781C539.116 112.839 530.45 112.839 523.413 108.781C516.382 104.719 512.043 97.2085 512.043 89.0841V23.5788V23.584C512.043 15.4589 516.382 7.95332 523.413 3.89065C530.449 -0.171883 539.115 -0.171883 546.153 3.89065C553.189 7.95318 557.522 15.4584 557.522 23.584Z" fill="black"/>
<path d="M0.855469 184.96V562.093C0.88151 574.125 5.6784 585.651 14.1888 594.145C22.7044 602.645 34.2355 607.421 46.2675 607.432H607.014C619.045 607.421 630.577 602.645 639.093 594.145C647.603 585.651 652.4 574.124 652.426 562.093V184.96H0.855469ZM52.5848 223.82H194.611C197.419 223.82 199.7 226.101 199.7 228.914C199.7 231.726 197.419 234.002 194.611 234.002H52.5848C49.7723 234.002 47.4963 231.726 47.4963 228.914C47.4963 226.101 49.7723 223.82 52.5848 223.82ZM143.481 268.793L52.5848 268.799C49.7723 268.799 47.4963 266.517 47.4963 263.705C47.4963 260.897 49.7723 258.616 52.5848 258.616H143.481C146.293 258.616 148.575 260.897 148.575 263.705C148.575 266.517 146.293 268.799 143.481 268.799V268.793ZM480.414 358.392L407.242 429.731L424.549 530.465C424.861 532.372 424.064 534.288 422.502 535.424C420.934 536.554 418.866 536.71 417.153 535.82L326.669 488.304L236.253 535.82C235.524 536.205 234.706 536.392 233.878 536.372C232.805 536.387 231.758 536.054 230.894 535.419C229.326 534.288 228.539 532.366 228.857 530.465L246.097 429.731L172.925 358.392C171.514 357.08 171.009 355.054 171.634 353.231C172.206 351.387 173.795 350.038 175.706 349.772L276.846 334.975L322.122 243.339V243.334C323.07 241.724 324.8 240.74 326.669 240.74C328.539 240.74 330.268 241.724 331.216 243.334L376.492 334.97L477.632 349.767V349.772C479.533 350.048 481.112 351.387 481.705 353.215C482.294 355.043 481.794 357.053 480.414 358.392Z" fill="black"/>
</svg>
