<svg width="568" height="568" viewBox="0 0 568 568" fill="none" xmlns="http://www.w3.org/2000/svg">
<path d="M104.537 358.397H286.723H286.718C298.937 334.47 316.895 313.949 338.989 298.662H104.535C96.2853 298.662 89.5979 291.98 89.5979 283.73C89.5979 275.48 96.2854 268.798 104.535 268.798H343.469C347.427 268.798 351.229 270.371 354.026 273.173C356.828 275.97 358.401 279.772 358.401 283.73C358.463 284.835 358.364 285.944 358.104 287.017C375.891 278.095 395.088 272.334 414.849 269.99C420.881 269.115 426.974 268.719 433.068 268.798C438.058 268.787 443.047 269.089 448 269.693V74.6667C448 54.864 440.135 35.8747 426.131 21.8693C412.131 7.86933 393.136 0 373.333 0H74.6667C54.864 0 35.8747 7.86973 21.8693 21.8693C7.86934 35.8747 0 54.864 0 74.6667V403.2C0 423.003 7.86974 441.992 21.8693 455.997C35.8747 469.997 54.864 477.867 74.6667 477.867H275.067C272.66 469.153 270.963 460.268 269.989 451.283C269.114 445.251 268.718 439.158 268.796 433.064C268.744 417.908 270.853 402.824 275.067 388.261H104.533C96.2833 388.261 89.596 381.579 89.596 373.329C89.596 365.085 96.2834 358.397 104.533 358.397L104.537 358.397ZM104.537 89.5969H343.47C351.715 89.5969 358.402 96.2843 358.402 104.534C358.402 112.779 351.714 119.466 343.47 119.466H104.537C96.2865 119.466 89.5992 112.779 89.5992 104.534C89.5992 96.2842 96.2866 89.5969 104.537 89.5969ZM104.537 179.196H343.47V179.201C351.715 179.201 358.402 185.883 358.402 194.133C358.402 202.378 351.714 209.065 343.47 209.065H104.537C96.2865 209.065 89.5992 202.377 89.5992 194.133C89.5992 185.883 96.2866 179.201 104.537 179.201V179.196ZM448.003 299.56C438.087 298.367 428.055 298.367 418.139 299.56C385.295 303.231 354.957 318.877 332.915 343.502C310.879 368.133 298.686 400.018 298.67 433.065C298.665 438.054 298.962 443.044 299.566 447.997C300.618 458.2 302.925 468.232 306.435 477.866C317.138 508.2 338.367 533.684 366.263 549.7C394.159 565.716 426.878 571.189 458.466 565.137C490.059 559.085 518.43 541.902 538.435 516.71C558.435 491.517 568.738 459.992 567.471 427.85C566.206 395.705 553.455 365.085 531.534 341.544C509.613 318.008 479.971 303.112 448.003 299.56ZM448.003 433.066C448.003 437.025 446.43 440.827 443.628 443.624C440.831 446.426 437.029 447.998 433.071 447.998H389.764C381.519 447.998 374.832 441.316 374.832 433.067C374.832 424.817 381.52 418.134 389.764 418.134H418.139V373.332C418.139 365.087 424.821 358.4 433.071 358.4C441.321 358.4 448.003 365.087 448.003 373.332L448.003 433.066Z" fill="black"/>
</svg>
