<svg width="359" height="411" viewBox="0 0 359 411" fill="none" xmlns="http://www.w3.org/2000/svg">
<path fill-rule="evenodd" clip-rule="evenodd" d="M145.6 49.0307C87.6306 63.9427 44.7973 116.547 44.7973 179.192V268.785C44.7973 277.041 38.0891 283.733 29.88 283.733C13.3747 283.733 0 297.14 0 313.597C0 330.092 13.396 343.467 29.9373 343.467H328.457C344.993 343.467 358.395 330.06 358.395 313.597C358.395 297.103 344.957 283.733 328.515 283.733C320.275 283.733 313.597 277.093 313.597 268.785V179.192C313.597 116.567 270.775 63.9467 212.795 49.0307V33.604C212.795 15 197.753 0 179.196 0C160.675 0 145.597 15.0467 145.597 33.604L145.6 49.0307ZM126.933 358.404H231.464C231.464 387.268 208.063 410.669 179.199 410.669C150.335 410.669 126.933 387.268 126.933 358.404Z" fill="black"/>
</svg>
