<svg width="307" height="307" viewBox="0 0 307 307" fill="none" xmlns="http://www.w3.org/2000/svg">
<path d="M0 276.7C0 194.5 0 112.2 0 30C0.2 29.2 0.400006 28.5 0.600006 27.7C2.50001 18.5 7.10001 10.8 15.1 6C19.6 3.3 24.9 2 29.9 0C112.1 0 194.4 0 276.6 0C277 0.2 277.3 0.4 277.7 0.5C295.6 3.9 306.5 17.2 306.5 35.5C306.5 114 306.5 192.5 306.5 271.1C306.5 274.2 306.3 277.3 305.6 280.3C301.8 296.4 288.4 306.7 271.3 306.7C217 306.7 162.7 306.7 108.5 306.7C83.8 306.7 59 306.8 34.3 306.7C22.7 306.7 13.4 301.8 6.39999 292.4C2.89999 287.6 1.3 282.2 0 276.7ZM170.1 238.3C170.1 181.5 170.1 125 170.1 68.4C158.8 68.4 147.7 68.4 136.5 68.4C136.5 125.1 136.5 181.6 136.5 238.3C147.8 238.3 158.8 238.3 170.1 238.3ZM102 238.3C102 198.4 102 158.9 102 119.5C90.6 119.5 79.5 119.5 68.5 119.5C68.5 159.3 68.5 198.8 68.5 238.3C79.7 238.3 90.8 238.3 102 238.3ZM204.6 170.4C204.6 193.2 204.6 215.7 204.6 238.2C215.9 238.2 227.1 238.2 238.2 238.2C238.2 215.5 238.2 193 238.2 170.4C227 170.4 215.9 170.4 204.6 170.4Z" fill="black"/>
</svg>
