<svg width="361" height="361" viewBox="0 0 361 361" fill="none" xmlns="http://www.w3.org/2000/svg">
<path d="M360.901 180.8C360.401 280 282.501 358.1 186.501 360.9C84.0008 364 1.4008 282.2 0.900804 181.9C0.400804 83.1005 79.2008 1.90047 178.801 1.00047C279.601 0.000473008 360.301 80.1005 360.901 180.8ZM309.901 268.2C349.101 213.5 349.501 124 286.301 65.9005C223.701 8.30047 125.501 11.9005 67.8008 73.6005C9.7008 135.6 17.3008 221 52.3008 268.1C88.1008 232.9 130.901 214.2 181.201 214.2C231.301 214.2 274.101 233 309.901 268.2Z" fill="black"/>
<path d="M181.2 48.8996C220.7 48.7996 253 81.2997 253 121.2C253 160.5 220.8 192.8 181.5 193C141.7 193.1 109 160.9 109 121.5C109 81.0996 140.9 48.9996 181.2 48.8996Z" fill="black"/>
</svg>
