<svg width="709" height="401" viewBox="0 0 709 401" fill="none" xmlns="http://www.w3.org/2000/svg">
<path d="M697.202 169.493C691.228 162.03 543.389 0 354.482 0C165.575 0 17.7353 162.027 11.762 168.747C-3.92067 186.668 -3.92067 212.799 11.762 229.976C17.736 238.184 165.575 400.216 354.482 400.216C543.389 400.216 691.229 238.189 697.202 231.469C712.885 213.548 712.885 186.672 697.202 169.496V169.493ZM354.482 341.227C276.831 341.227 213.362 278.508 213.362 200.853C213.362 123.203 276.831 59.7333 354.482 59.7333C432.133 59.7333 495.602 123.203 495.602 200.853C495.602 277.76 432.133 341.227 354.482 341.227Z" fill="black"/>
<path d="M354.482 117.227C308.935 117.227 271.602 154.56 271.602 200.107C271.602 245.653 308.935 282.987 354.482 282.987C400.028 282.987 437.362 245.653 437.362 200.107C437.362 154.56 400.028 117.227 354.482 117.227Z" fill="black"/>
</svg>
