<svg width="596" height="315" viewBox="0 0 596 315" fill="none" xmlns="http://www.w3.org/2000/svg">
<path fill-rule="evenodd" clip-rule="evenodd" d="M355.165 136.989C414.816 141.333 462.275 191.489 462.275 252.197V272.072C443.972 282.801 424.305 291.509 403.796 298.192V254.604H383.093V304.183C327.729 318.24 267.661 318.235 212.293 304.177V254.604H191.591V298.188C171.064 291.511 151.403 282.808 133.107 272.068V252.199C133.107 191.485 180.565 141.335 240.221 136.991C255.492 150.6 275.628 158.881 297.7 158.881C319.763 158.881 339.903 150.6 355.169 136.991L355.165 136.989ZM517.685 129.375C560.945 132.526 595.379 168.911 595.379 212.959V227.371C560.124 248.064 517.889 258.371 475.676 258.313V252.204C475.676 202.387 446.931 158.548 404.78 137.157C413.853 132.866 423.811 130.137 434.296 129.376C445.374 139.256 459.989 145.267 475.999 145.267C491.999 145.267 506.603 139.256 517.692 129.376L517.685 129.375ZM475.992 30.0107C505.023 30.0107 528.56 53.5373 528.56 82.5787C528.56 111.609 505.024 135.147 475.992 135.147C446.956 135.147 423.419 111.611 423.419 82.5787C423.419 53.5427 446.955 30.0107 475.992 30.0107ZM161.099 129.375C171.573 130.135 181.525 132.854 190.609 137.156C148.459 158.541 119.713 202.385 119.713 252.203V258.312C77.4947 258.364 35.26 248.046 0 227.369V212.957C0 168.911 34.4267 132.525 77.7027 129.373C88.7808 139.253 103.396 145.264 119.396 145.264C135.407 145.264 150.011 139.253 161.099 129.373V129.375ZM119.396 30.0107C148.432 30.0107 171.969 53.5373 171.969 82.5787C171.969 111.609 148.433 135.147 119.396 135.147C90.3653 135.147 66.828 111.611 66.828 82.5787C66.828 53.5427 90.364 30.0107 119.396 30.0107ZM297.689 0C337.711 0 370.153 32.448 370.153 72.4733C370.153 112.495 337.711 144.937 297.689 144.937C257.659 144.937 225.225 112.495 225.225 72.4733C225.225 32.452 257.663 0 297.689 0Z" fill="black"/>
</svg>
