<svg width="618" height="673" viewBox="0 0 618 673" fill="none" xmlns="http://www.w3.org/2000/svg">
<path d="M66.297 666.769C57.8074 660.936 9.22367 612.712 4.43699 604.9C-0.766078 596.515 -1.75045 585.212 4.43699 578.384C12.463 569.556 59.6664 541.452 92.8117 507.696C131.681 468.196 178.342 405.024 216.509 366.296C253.462 328.827 318.848 286.4 322.556 286.769C323.342 286.858 325.196 288.202 327.759 290.4L366.743 251.4C393.8 217.754 388.581 175.326 373.732 156.864C364.55 145.364 343.935 143.238 326.967 147.681C314.253 150.952 269.535 101.187 269.535 101.187C266.363 97.369 264.676 88.5461 269.535 83.5147L349.076 3.97872C354.035 -0.802479 362.53 -0.963945 366.759 3.97872L402.114 39.3281C410.14 47.125 411.655 56.6507 412.359 66.6401C413.249 77.7703 413.249 93.588 424.567 105.249C434.812 115.947 452.931 108.609 466.895 113.395C482.889 118.854 535.545 169.307 561.879 207.661C588.239 245.953 615.8 303.915 617.108 350.821C618.264 393.419 598.285 440.43 589.103 454.67C581.769 466.154 565.425 455.285 569.561 444.41C580.442 416.582 573.827 377.956 562.947 353.836C548.359 321.399 510.103 297.992 486.072 294.186C467.594 291.274 430.843 295.248 410.942 313.264L380.546 343.676C382.572 346.051 383.988 347.838 384.436 348.619C387.712 354.718 336.89 412.682 304.9 445.827C273.968 477.926 204.952 535.978 172.338 569.551C137.015 606.062 98.2909 658.723 92.8269 666.759C87.4258 674.702 76.1144 673.665 66.297 666.769Z" fill="black"/>
</svg>
